<svg width="24" height="34" viewBox="0 0 24 34" fill="none" xmlns="http://www.w3.org/2000/svg">
<g id="Group 6">
<path id="Vector" d="M18 33.6H6C4.4087 33.6 2.88258 32.9679 1.75736 31.8426C0.632141 30.7174 0 29.1913 0 27.6V26.4C0 23.5357 1.13785 20.7886 3.16325 18.7632C5.18864 16.7379 7.93566 15.6 10.8 15.6H13.2C16.0643 15.6 18.8114 16.7379 20.8368 18.7632C22.8621 20.7886 24 23.5357 24 26.4V27.6C24 29.1913 23.3679 30.7174 22.2426 31.8426C21.1174 32.9679 19.5913 33.6 18 33.6ZM10.8 18C8.57218 18 6.43561 18.885 4.8603 20.4603C3.285 22.0356 2.4 24.1722 2.4 26.4V27.6C2.4 28.5548 2.77928 29.4705 3.45442 30.1456C4.12955 30.8207 5.04522 31.2 6 31.2H18C18.9548 31.2 19.8705 30.8207 20.5456 30.1456C21.2207 29.4705 21.6 28.5548 21.6 27.6V26.4C21.6 24.1722 20.715 22.0356 19.1397 20.4603C17.5644 18.885 15.4278 18 13.2 18H10.8Z" fill="#278429"/>
<path id="Vector_2" d="M12 14.4C10.576 14.4 9.18392 13.9777 7.99988 13.1866C6.81585 12.3954 5.89301 11.271 5.34806 9.95532C4.80311 8.6397 4.66052 7.19202 4.93834 5.79535C5.21615 4.39869 5.90188 3.11577 6.90882 2.10883C7.91576 1.1019 9.19868 0.416163 10.5953 0.138349C11.992 -0.139464 13.4397 0.00311966 14.7553 0.548071C16.0709 1.09302 17.1954 2.01586 17.9866 3.1999C18.7777 4.38393 19.2 5.77598 19.2 7.2C19.2 9.10956 18.4414 10.9409 17.0912 12.2912C15.7409 13.6414 13.9095 14.4 12 14.4ZM12 2.4C11.0506 2.4 10.1226 2.68152 9.33325 3.20895C8.5439 3.73638 7.92867 4.48604 7.56537 5.36312C7.20207 6.24021 7.10701 7.20533 7.29222 8.13644C7.47743 9.06755 7.93459 9.92282 8.60588 10.5941C9.27717 11.2654 10.1324 11.7226 11.0636 11.9078C11.9947 12.093 12.9598 11.9979 13.8369 11.6346C14.714 11.2713 15.4636 10.6561 15.991 9.86674C16.5185 9.07738 16.8 8.14935 16.8 7.2C16.8 5.92696 16.2943 4.70607 15.3941 3.80589C14.4939 2.90572 13.273 2.4 12 2.4Z" fill="#278429"/>
</g>
</svg>
