<svg width="22" height="22" viewBox="0 0 22 22" fill="none" xmlns="http://www.w3.org/2000/svg">
<g id="Group 7">
<path id="Vector" d="M16.4 16.4C14.846 17.5845 12.9537 18.2408 11 18.2727C4.63636 18.2727 1 11 1 11C2.13081 8.89263 3.69921 7.05146 5.6 5.6M9.09091 3.94545C9.71667 3.79898 10.3573 3.72576 11 3.72727C17.3636 3.72727 21 11 21 11C20.4482 12.0324 19.7901 13.0043 19.0364 13.9M12.9273 12.9273C12.6776 13.1952 12.3765 13.4101 12.042 13.5592C11.7074 13.7083 11.3463 13.7884 10.9801 13.7949C10.6139 13.8013 10.2501 13.734 9.91055 13.5968C9.57096 13.4596 9.26247 13.2555 9.0035 12.9965C8.74452 12.7375 8.54036 12.429 8.40319 12.0894C8.26602 11.7498 8.19866 11.3861 8.20512 11.0199C8.21158 10.6537 8.29174 10.2926 8.4408 9.95804C8.58986 9.6235 8.80478 9.3224 9.07273 9.07272" stroke="#278429" stroke-width="2" stroke-linecap="round" stroke-linejoin="round"/>
<path id="Vector_2" d="M1 1L21 21" stroke="#278429" stroke-width="2" stroke-linecap="round" stroke-linejoin="round"/>
</g>
</svg>
