<svg width="24" height="35" viewBox="0 0 24 35" fill="none" xmlns="http://www.w3.org/2000/svg">
<g id="Group 8">
<path id="Vector" d="M20.9969 12.5677H20.4292V8.42838C20.4294 3.78097 16.6481 0 12.0002 0C7.35242 0 3.5711 3.78097 3.5711 8.42838V12.5677H3.00309C1.34727 12.5677 0 13.9149 0 15.5708V31.849C0 33.5049 1.34727 34.8521 3.00309 34.8521H20.9969C22.6527 34.8521 24 33.5049 24 31.849V15.5708C24 13.9149 22.6529 12.5677 20.9969 12.5677ZM6.14518 8.42838C6.14518 5.20032 8.77177 2.57408 12.0002 2.57408C15.2286 2.57408 17.8552 5.20032 17.8552 8.42838V12.5677H6.14518V8.42838ZM21.4259 31.8492C21.4259 32.0817 21.2294 32.2782 20.9969 32.2782H3.00309C2.77056 32.2782 2.57408 32.0817 2.57408 31.8492V15.5708C2.57408 15.3382 2.77056 15.1417 3.00309 15.1417H4.85814H19.1422H20.9969C21.2294 15.1417 21.4259 15.3382 21.4259 15.5708V31.8492Z" fill="#278429"/>
<path id="Vector_2" d="M11.9998 19.9592C11.289 19.9592 10.7128 20.5353 10.7128 21.2463V26.1739C10.7128 26.8849 11.289 27.4609 11.9998 27.4609C12.7106 27.4609 13.2868 26.8849 13.2868 26.1739V21.2463C13.2868 20.5353 12.7106 19.9592 11.9998 19.9592Z" fill="#278429"/>
</g>
</svg>
